<svg width="24" height="24" viewBox="0 0 24 24" fill="none" xmlns="http://www.w3.org/2000/svg">
<path d="M10.0001 16.6667C9.91243 16.6691 9.82532 16.6525 9.74475 16.618C9.66417 16.5834 9.59206 16.5318 9.5334 16.4667C9.47023 16.4065 9.41994 16.3341 9.38557 16.2539C9.35121 16.1736 9.3335 16.0873 9.3335 16C9.3335 15.9127 9.35121 15.8264 9.38557 15.7462C9.41994 15.666 9.47023 15.5936 9.5334 15.5333L13.0667 12L9.5334 8.46668C9.41169 8.34249 9.34391 8.17528 9.34479 8.00139C9.34566 7.82751 9.41513 7.66099 9.53809 7.53804C9.66104 7.41508 9.82756 7.34561 10.0014 7.34473C10.1753 7.34386 10.3425 7.41164 10.4667 7.53335L14.4667 11.5333C14.5299 11.5936 14.5802 11.666 14.6146 11.7462C14.6489 11.8264 14.6666 11.9127 14.6666 12C14.6666 12.0873 14.6489 12.1736 14.6146 12.2539C14.5802 12.3341 14.5299 12.4065 14.4667 12.4667L10.4667 16.4667C10.4081 16.5318 10.336 16.5834 10.2554 16.618C10.1748 16.6525 10.0877 16.6691 10.0001 16.6667Z" fill="#F05A24" stroke="#F05A24"/>
<circle cx="12" cy="12" r="11" stroke="#F05A24" stroke-width="2"/>
</svg>
